<svg version="1.1" id="logo-marca-futura" xmlns="http://www.w3.org/2000/svg" x="0" y="0" viewBox="0 0 2000 787.5" style="enable-background:new 0 0 2000 787.5" xml:space="preserve"><style>.st0{fill:#fff}</style><g id="g16" transform="matrix(3.40766 0 0 3.40766 73.077 240.955)"><path id="path2" class="st0" d="M262.3 43.1h32.5l-1.7 8.6h-30.8V78h-9.9V10.4h43.4l1.7 8.6h-35.2v24.1z"/><path id="path4" class="st0" d="M354.3 28.4V78h-9.5l.9-7.9c-3.8 5.8-9.9 9-18.2 9-11 0-18.2-6.6-18.2-17.4V28.4h9.7v31.3c0 7.4 3.8 11.2 10.7 11.2 8.7 0 14.7-6.7 14.7-17.2V28.4h9.9z"/><path id="path6" class="st0" d="M398.5 67.5c3.2 0 6.2-.9 9-2.3L406 76.5c-4.2 1.9-7.9 2.7-11.9 2.7-11.4 0-17.8-7.4-17.8-20.3v-20h-10.1L364 28.4h12.3V16.6l13-3.6v15.4h19.8L407 38.9h-17.8v17.9c.1 7.4 3.1 10.7 9.3 10.7z"/><path id="path8" class="st0" d="M465.2 28.4V78h-11.7l.6-7.8c-3.8 5.8-9.8 9-17.8 9-11.4 0-18.4-6.8-18.4-17.7V28.4h13V59c0 6.2 3.2 9.6 9 9.6 7 0 12.3-5.4 12.3-15.2v-25h13z"/><path id="path10" class="st0" d="M513.5 43.5h-3.2c-9.1 0-13.6 4.6-13.6 13.6V78h-17.1V28.4H494l-.8 11.5c2.3-7.9 8.2-13 17.6-12.9l2.7 16.5z"/><path id="path12" class="st0" d="M565.5 47v31h-13.9l1.1-7.5c-3.2 5.5-8.8 8.8-16.5 8.8-11.5 0-20.2-7.4-20.2-17.9 0-9.8 6.8-13.8 23-13.8h9.8c-.5-4.7-4.6-7-12.6-7-5 0-10.3.8-15.9 2.4l3.2-14c5.5-1.4 11.4-2 17.7-2 16.6 0 24.3 6.7 24.3 20zm-16.7 10.9h-8.7c-4.6 0-6.9 1.2-6.9 4.1 0 3.3 3.1 5.8 7.3 5.8 5 0 8.3-3.5 8.3-9.9z"/><path id="path14" class="st0" d="M94.1 160.4c-63.7 0-115.6-51.8-115.6-115.6S30.4-70.7 94.1-70.7 209.7-18.9 209.7 44.8 157.8 160.4 94.1 160.4zm0-203.6c-48.5 0-88 39.5-88 88s39.5 88 88 88 88-39.5 88-88-39.5-88-88-88z"/></g><path id="path18" d="M607.6 603.8c182.5 0 179.9-210.1 179.9-210.1h-93.9c.1.1-5.9 130.8-86 210.1z" style="fill:#fff"/><path id="path20" class="st0" d="M612.6 566.1c-96.4 0-174.9-78.5-174.9-174.9s78.5-174.9 174.9-174.9 174.9 78.5 174.9 174.9-78.4 174.9-174.9 174.9zm0-256c-44.7 0-81.1 36.4-81.1 81.1 0 44.7 36.4 81.1 81.1 81.1 44.7 0 81.1-36.4 81.1-81.1s-36.4-81.1-81.1-81.1z"/><path id="path22" d="M693.6 388.8c0-108-57.1-170.9-57.1-170.9s-42.8-8.3-88.6 10.7c.1 0 138.3 68.7 145.7 160.2z" style="fill:#22932b"/></svg>